<?xml version="1.0" standalone="no"?>
<!DOCTYPE svg PUBLIC "-//W3C//DTD SVG 1.1//EN" "http://www.w3.org/Graphics/SVG/1.1/DTD/svg11.dtd">
<svg xmlns="http://www.w3.org/2000/svg" viewBox="0 0 113 140" width="113" height="140"><path fill="#202a31" stroke="#5c768d" stroke-width="2" d="M1.13 69.95L56.7 138.9l55.17-68.95L56.7 1z" stroke-linejoin="round"/><path fill="#5c768d" stroke="#98adbd" stroke-width="2" d="M7 69.95l49.68 61.65L106 69.95 56.7 8.3z" stroke-linejoin="round"/><path fill="#202a31" stroke="#06fdde" stroke-width=".5" d="M15.25 69.95l41.4 51.37 41.1-51.37-41.1-51.37z" stroke-linejoin="round"/><path fill="#7bd3f7" stroke="#fff" stroke-width=".25" d="M39.7 60.67l12.97-.1 3.82-12.2 4.04 12.42 12.73-.1-9.9 7.47L67 80.4l-10.27-7.47-10.4 7.44 3.83-12.06z" stroke-linejoin="round"/><path fill="#202a31" stroke="#5c768d" d="M4.8 94.87h103.4v23.92H4.8z" stroke-linejoin="round"/><path fill="#7bd3f7" stroke="#fff" stroke-width=".25" d="M36.47 63.3h-3.94c.92-8.06 6.43-18.36 19.28-21.2v-1.9l5.46 3.43-5.42 3.54-.04-1.1c-8.5 2.07-14.45 9.2-15.3 17.24zm22.5-17.64v-3.94C67 42.64 77.3 48.15 80.15 61l1.92-.03-3.44 5.46L75.1 61l1.1-.03c-2.07-8.5-9.2-14.44-17.25-15.3zM54.04 85.8v3.93C46 88.8 35.7 83.3 32.86 70.45l-1.93.03 3.44-5.46 3.54 5.43-1.1.03c2.1 8.5 9.2 14.44 17.26 15.3zm22.5-17.64h3.94c-.93 8.05-6.43 18.35-19.3 21.18l.04 1.92-5.46-3.44 5.43-3.53v1.1c8.5-2.1 14.44-9.2 15.3-17.27z" stroke-linejoin="round"/><path fill-rule="evenodd" d="M85.56 101.43v1.5s1.63-.16 1.73 1.76c.1 2.32-1.74 2.36-1.74 2.36v.97l1.52 4.77h3.72v-1.47l-.95-.42-1.05-2.75s1.83-.9 1.84-3.07c0-2.17-1.04-3.15-2.68-3.65zm-33.6 0v1l1.2 2.3 1-.35.13-2.95zm20.54 0v1.04l.65.23 3.16 8.33-.88.55v1.22h5.05v-1.36h-.6l-3.23-10zm8.54 0l-.57 1.5 1 .32v8.2H81v1.35h4.65v-1.4h-.83v-9.97zm10.62 0v1.3l.7.05 2.88 7.46 1.48 1.46 1.53-3.63-2.62-6.64zm7.56 0l-1.36 3.44 1.54 4.04v2.5h-.87v1.4h4.35v-1.2h-.57v-9h.7v-1.17zm-73.1 0v1.16s1.7-.05 1.82 3.95c0 5.4-1.82 5.15-1.82 5.15l-.02 1.1s1.94.14 2.63-.23c1.3-.7 3.07-2.13 3.04-5.35-.32-4.2-2.12-5.94-5.66-5.8zm12.13 0v1.13c1.75.47 1.72 2.52 1.74 4.2.02 1.7 0 4.63-1.74 4.94l-.02 1.1s1.94.14 2.63-.23c1.3-.7 3.07-2.13 3.04-5.35-.27-4-2.26-5.8-5.65-5.8zm23.72 0l-1.08 1.1.5.56.73-.08v8.72h-.5v1.06h4.73v-1.25h-.77v-3.38h3.06v-1.87H65.6v-4.87zm4.35 0v1.2s2.16-.3 2.78 2.14l1-.8v-2.54zm-18.87 0h-2.83v3.38l.92.24 1.9-2.73zm.77 0v9.84h-1.04v1.53h5.03v-1.6h-1.03v-9.77zm-37.62 0v1.5h.77v8.38h-.77v1.5h5.2v-1.3l-.94.03v-8.76h.93v-1.34zm9.8 5.9c0 3.2.67 4.56 1.9 5.13 1.27.52 3.07.34 3.07.34v-1.05s-1.47.5-1.46-4.17c.02-4.68 1.43-4.96 1.43-4.96v-1.2c-3.7.03-4.9 3.83-4.94 5.9zm12.05.05c0 3.18.67 4.5 1.9 5.07 1 .5 3.16.35 3.16.35v-1.05s-1.4.13-1.45-4.17c-.06-4.3 1.42-5.08 1.42-5.08v-1.07c-3.7-.02-4.98 3.78-5.02 5.95zm40.75-2.43l-2.07 5.63-.83.66h-.75v1.56h4.3v-1.34H72.7l.66-1.4h1.77l-.58-1.52h-1.07v-.8l.63-.4zm19.77 1.54l-.65 4.93h-.8v1.37h3.92v-1.56H94.3v-1.32zm-74.54 2.07c0 2.54-1.88 2.93-1.88 2.93v1.3h2.85l.34-3.82zm40.04.75c-.94 0-1.7.77-1.7 1.72s.76 1.76 1.7 1.76 1.7-.8 1.7-1.76c0-.95-.76-1.72-1.7-1.72z"/><path fill="#7bd3f7" fill-rule="evenodd" d="M84.97 100.84v1.5s1.62-.17 1.72 1.75c.1 2.32-1.73 2.37-1.73 2.37v.96l1.5 4.78h3.73v-1.46l-.95-.42-1.04-2.77s1.84-.9 1.84-3.06c0-2.2-1.04-3.17-2.67-3.66zm-33.6 0v1l1.2 2.3 1-.35.13-2.96zm20.53 0v1.03l.66.24 3.15 8.34-.88.54v1.23h5.06v-1.36h-.6l-3.24-10zm8.54 0l-.56 1.5 1 .3v8.2h-.47v1.37h4.66v-1.4h-.84v-9.96zm10.63 0v1.3l.7.04 2.88 7.46 1.47 1.46 1.54-3.62-2.62-6.64zm7.55 0l-1.35 3.43 1.53 4.05v2.48h-.86v1.4h4.34V111h-.56v-8.98h.68v-1.18zm-73.1 0V102s1.7-.05 1.83 3.96c0 5.4-1.82 5.14-1.82 5.14l-.03 1.1s1.94.15 2.63-.23c1.3-.7 3.08-2.12 3.05-5.34-.32-4.2-2.13-5.95-5.67-5.8zm12.13 0v1.12c1.76.47 1.72 2.53 1.75 4.2.02 1.7 0 4.63-1.73 4.94l-.03 1.1s1.94.15 2.63-.23c1.3-.7 3.08-2.12 3.05-5.34-.3-4-2.27-5.82-5.67-5.8zm23.72 0l-1.07 1.1.5.55.74-.07v8.72h-.5v1.06h4.73v-1.25H65v-3.38h3.06v-1.87H65v-4.86zm4.35 0v1.18s2.17-.3 2.78 2.15l1-.8v-2.53zm-18.87 0h-2.82v3.37l.9.25 1.92-2.74zm.78 0v9.84h-1.05v1.53h5.03v-1.58h-1.03v-9.78zm-37.63 0v1.5h.77v8.38H10v1.5h5.2v-1.32l-.94.03v-8.76h.94v-1.33zm9.8 5.9c0 3.18.67 4.56 1.9 5.12 1.27.53 3.07.35 3.07.35v-1.05s-1.46.5-1.45-4.17c0-4.67 1.42-4.96 1.42-4.96v-1.18c-3.7 0-4.9 3.82-4.95 5.9zm12.06.04c0 3.2.66 4.5 1.88 5.07 1.02.5 3.17.36 3.17.36v-1.05s-1.4.13-1.44-4.17c-.06-4.3 1.42-5.08 1.42-5.08v-1.06c-3.7-.03-4.98 3.77-5.02 5.94zm40.74-2.43L70.53 110l-.83.65h-.74v1.56h4.28v-1.34H72.1l.67-1.38h1.77l-.58-1.54H72.9v-.8l.6-.4zm19.77 1.55l-.65 4.93h-.8v1.38h3.92v-1.55H93.7v-1.32zm-74.54 2.07c0 2.54-1.88 2.93-1.88 2.93l.02 1.3h2.84l.34-3.82zm40.05.75c-.95 0-1.7.78-1.7 1.73s.76 1.75 1.7 1.76c.94 0 1.7-.8 1.7-1.75 0-.96-.76-1.73-1.7-1.73z"/></svg>